<?xml version="1.0"?>
<svg xmlns="http://www.w3.org/2000/svg" id="Layer_1" height="512px" viewBox="0 0 128 128" width="512px" data-name="Layer 1"><g><path d="m100.393 37.477a1.749 1.749 0 0 0 1.561 1.368c.05 0 .1.007.15.007a1.75 1.75 0 0 0 1.62-1.09l7.693-18.9a1.75 1.75 0 0 0 -2.28-2.281l-18.9 7.692a1.75 1.75 0 0 0 .285 3.33l6.064 1.331-6.149 6.149-30.3-15.521a4.926 4.926 0 0 0 -3.381-.406c-12.786 3.043-30.011-1.071-30.19-1.116a4.942 4.942 0 0 0 -4.639 1.3l-4.027 4.04a4.919 4.919 0 0 0 6.956 6.956l.486-.486 11.341 57.42-7.027-.446a1.734 1.734 0 0 0 -1.348.509l-10.4 10.4a1.75 1.75 0 0 0 1.052 2.978l7.528.8.8 7.527a1.75 1.75 0 0 0 2.978 1.052l10.4-10.4a1.75 1.75 0 0 0 .509-1.348l-.446-7.027 57.419 11.346-.485.485a4.919 4.919 0 0 0 6.956 6.956l4.034-4.033a4.954 4.954 0 0 0 1.3-4.643c-.042-.173-4.154-17.421-1.116-30.184a4.918 4.918 0 0 0 -.406-3.385l-15.52-30.3 6.149-6.149zm6.216-16.085-4 9.835-.81-3.687a1.75 1.75 0 0 0 -1.334-1.334l-3.687-.81zm-86.238 6.47a1.421 1.421 0 0 1 0-2.007l4.029-4.034a1.431 1.431 0 0 1 1.332-.378c.178.044 18.278 4.348 31.833 1.121a1.422 1.422 0 0 1 .975.117l29.298 15.006-2.109 2.113-27.462-14.071a1.757 1.757 0 0 0 -1.154-.156c-11.547 2.4-25.063.106-30.338-.99a1.738 1.738 0 0 0 -1.594.476l-2.8 2.8a1.421 1.421 0 0 1 -2.01.002zm79.129 71.499-57.1-11.282 43.2-43.208 13.278 25.915c-2.022 10.448-.543 22.133.622 28.575zm-59.579-13.761-11.282-57.1c6.441 1.161 18.127 2.641 28.576.617l25.914 13.283zm-9.538 19.422-.564-5.291a1.751 1.751 0 0 0 -1.555-1.555l-5.292-.563 7.25-7.25 6.968.441.442 6.968zm74.934-35.571a1.416 1.416 0 0 1 .117.977c-3.26 13.7 1.077 31.65 1.12 31.824a1.431 1.431 0 0 1 -.375 1.341l-4.033 4.033a1.419 1.419 0 0 1 -2.007-2.007l2.8-2.8a1.75 1.75 0 0 0 .476-1.594c-1.1-5.276-3.391-18.794-.991-30.338a1.749 1.749 0 0 0 -.156-1.154l-14.068-27.462 2.109-2.109z" data-original="#000000" class="active-path" fill="#000000"/></g> </svg>
