<?xml version="1.0"?>
<svg xmlns="http://www.w3.org/2000/svg" xmlns:xlink="http://www.w3.org/1999/xlink" version="1.1" id="Capa_1" x="0px" y="0px" viewBox="0 0 480.001 480.001" style="enable-background:new 0 0 480.001 480.001;" xml:space="preserve" width="512px" height="512px"><g><g>
	<g>
		<g>
			<path d="M368.001,256h-120v-40c0-13.255-10.745-24-24-24h-168c-22.091,0-40-17.909-40-40s17.909-40,40-40h384     c22.091,0,40-17.909,40-40s-17.909-40-40-40h-184c-4.418,0-8-3.582-8-8V0h-16v24c0,13.255,10.745,24,24,24h184     c13.255,0,24,10.745,24,24s-10.745,24-24,24h-384c-30.928,0-56,25.072-56,56c0,30.928,25.072,56,56,56h168c4.418,0,8,3.582,8,8     v40h-120c-61.856,0-112,50.144-112,112s50.144,112,112,112c29.312,0.129,57.478-11.38,78.312-32h99.376     c20.834,20.62,49,32.129,78.312,32c61.856,0,112-50.144,112-112S429.856,256,368.001,256z M368.001,464     c-26.143,0.114-51.174-10.57-69.176-29.528c-1.51-1.579-3.599-2.472-5.784-2.472h-106.08c-2.185,0-4.274,0.893-5.784,2.472     c-18.002,18.958-43.033,29.642-69.176,29.528c-53.019,0-96-42.981-96-96s42.981-96,96-96h256c53.019,0,96,42.981,96,96     S421.02,464,368.001,464z" data-original="#000000" class="active-path" fill="#000000"/>
			<path d="M168.001,344h-32v-32c0-4.418-3.582-8-8-8h-32c-4.418,0-8,3.582-8,8v32h-32c-4.418,0-8,3.582-8,8v32c0,4.418,3.582,8,8,8     h32v32c0,4.418,3.582,8,8,8h32c4.418,0,8-3.582,8-8v-32h32c4.418,0,8-3.582,8-8v-32C176.001,347.582,172.419,344,168.001,344z      M80.001,376h-16v-16h16V376z M104.001,320h16v16h-16V320z M120.001,416h-16v-16h16V416z M128.001,384h-32v-32h32V384z      M160.001,376h-16v-16h16V376z" data-original="#000000" class="active-path" fill="#000000"/>
			<path d="M353.057,346.768l-0.008,0.008c4.23,3.385,9.487,5.227,14.904,5.224c0.92-0.002,1.838-0.055,2.752-0.16     c13.171-1.487,22.643-13.37,21.155-26.542c-0.715-6.329-3.916-12.115-8.899-16.082c-10.37-8.258-25.47-6.546-33.728,3.824     S342.687,338.51,353.057,346.768z M361.732,323.062c0.012-0.015,0.024-0.031,0.037-0.046h-0.024     c1.315-1.665,3.243-2.734,5.352-2.968c0.3-0.031,0.602-0.047,0.904-0.048c1.806-0.002,3.559,0.613,4.968,1.744     c3.467,2.739,4.057,7.77,1.318,11.237c-2.739,3.467-7.77,4.057-11.237,1.318C359.583,331.56,358.993,326.529,361.732,323.062z" data-original="#000000" class="active-path" fill="#000000"/>
			<path d="M408.001,344c-13.255,0-24,10.745-24,24s10.745,24,24,24s24-10.745,24-24S421.255,344,408.001,344z M408.001,376     c-4.418,0-8-3.582-8-8s3.582-8,8-8s8,3.582,8,8S412.419,376,408.001,376z" data-original="#000000" class="active-path" fill="#000000"/>
			<path d="M352.001,368c0-13.255-10.745-24-24-24s-24,10.745-24,24s10.745,24,24,24S352.001,381.255,352.001,368z M328.001,376     c-4.418,0-8-3.582-8-8s3.582-8,8-8s8,3.582,8,8S332.419,376,328.001,376z" data-original="#000000" class="active-path" fill="#000000"/>
			<path d="M368.001,384c-13.255,0-24,10.745-24,24s10.745,24,24,24s24-10.745,24-24S381.255,384,368.001,384z M368.001,416     c-4.418,0-8-3.582-8-8s3.582-8,8-8s8,3.582,8,8S372.419,416,368.001,416z" data-original="#000000" class="active-path" fill="#000000"/>
			<path d="M224.001,360h-16c-4.418,0-8,3.582-8,8s3.582,8,8,8h16c4.418,0,8-3.582,8-8S228.419,360,224.001,360z" data-original="#000000" class="active-path" fill="#000000"/>
			<path d="M272.001,360h-16c-4.418,0-8,3.582-8,8s3.582,8,8,8h16c4.418,0,8-3.582,8-8S276.419,360,272.001,360z" data-original="#000000" class="active-path" fill="#000000"/>
		</g>
	</g>
</g></g> </svg>
