<?xml version="1.0"?>
<svg xmlns="http://www.w3.org/2000/svg" xmlns:xlink="http://www.w3.org/1999/xlink" version="1.1" id="Capa_1" x="0px" y="0px" viewBox="0 0 512 512" style="enable-background:new 0 0 512 512;" xml:space="preserve" width="512px" height="512px"><g><g>
	<g>
		<path d="M358.36,153.639c-7.811-7.81-20.473-7.81-28.283,0.001L120.896,362.82c-3.581,3.581-5.5,8.183-5.797,12.868L4.394,486.394    c-5.858,5.857-5.858,15.355,0,21.213C7.323,510.535,11.162,512,15.001,512s7.678-1.465,10.606-4.394l110.704-110.704    c4.686-0.297,9.288-2.216,12.869-5.797l209.18-209.181C366.171,174.113,366.171,161.449,358.36,153.639z" data-original="#000000" class="active-path" fill="#000000"/>
	</g>
</g><g>
	<g>
		<path d="M462.861,49.142c-5.858-5.856-15.355-5.857-21.213-0.001l-36.014,36.011c-5.858,5.857-5.859,15.355-0.001,21.214    c2.929,2.929,6.767,4.394,10.607,4.394c3.838,0,7.677-1.465,10.606-4.393l36.014-36.011    C468.718,64.498,468.719,55.001,462.861,49.142z" data-original="#000000" class="active-path" fill="#000000"/>
	</g>
</g><g>
	<g>
		<path d="M462.86,265.207l-36.014-36.011c-5.857-5.857-15.355-5.856-21.213,0.001c-5.858,5.858-5.857,15.355,0.001,21.214    l36.014,36.011c2.929,2.929,6.767,4.393,10.606,4.393s7.678-1.465,10.607-4.394C468.719,280.563,468.717,271.065,462.86,265.207z" data-original="#000000" class="active-path" fill="#000000"/>
	</g>
</g><g>
	<g>
		<path d="M282.803,85.153l-36.011-36.011c-5.857-5.857-15.355-5.857-21.213,0c-5.858,5.857-5.858,15.355,0,21.213l36.011,36.011    c2.929,2.929,6.768,4.394,10.607,4.394s7.678-1.465,10.606-4.394C288.662,100.509,288.662,91.011,282.803,85.153z" data-original="#000000" class="active-path" fill="#000000"/>
	</g>
</g><g>
	<g>
		<path d="M497.001,152.782h-50.927c-8.284,0-15,6.716-15,15s6.716,15,15,15h50.927c8.284,0,15-6.716,15-15    S505.285,152.782,497.001,152.782z" data-original="#000000" class="active-path" fill="#000000"/>
	</g>
</g><g>
	<g>
		<path d="M242.363,152.782h-50.927c-8.284,0-15,6.716-15,15s6.716,15,15,15h50.927c8.284,0,15-6.716,15-15    S250.647,152.782,242.363,152.782z" data-original="#000000" class="active-path" fill="#000000"/>
	</g>
</g><g>
	<g>
		<path d="M344.219,254.637c-8.284,0-15,6.716-15,15v50.928c0,8.284,6.716,15,15,15s15-6.716,15-15v-50.928    C359.219,261.353,352.503,254.637,344.219,254.637z" data-original="#000000" class="active-path" fill="#000000"/>
	</g>
</g><g>
	<g>
		<path d="M344.219,0c-8.284,0-15,6.716-15,15v50.926c0,8.284,6.716,15,15,15s15-6.716,15-15V15C359.219,6.716,352.503,0,344.219,0z    " data-original="#000000" class="active-path" fill="#000000"/>
	</g>
</g></g> </svg>
